Patient4_TMGait_0pt4_03_left_29_EMG.mot
version=1
nRows=20
nColumns=33
inDegrees=no
endheader
time	1LAddLong	2LGlutMax	3LGlutMed	4LIliopsoas	5LSemiMemb	6LBicFemLong	7LRecFem	8LVastMed	9LVastLat	10LGasMed	11LTibAnt	12lTibPost	13LPeroneusLong	14LSol	15LExtDigLong	16LFlexDigLong	17RAddLong	18RGlutMax	19RGlutMed	20RIliopsoas	21RSemiMemb	22RBicFemLong	23RRecFem	24RVastMed	25RVastLat	26RGasMed	27RTibAnt	28RTibPost	29RPeroneusLong	30RSol	31RExtDigLong	32RFlexDigLong
38.672	0.045166	0.085297	-0.09079	0.002747	-0.049744	0.12039	-0.23102	0.000458	0.020447	-0.088959	-0.044403	0.023651	-0.026093	-0.21759	-0.18738	-0.16937	0.052032	0.099792	0.15488	-0.091095	0.033875	0.008698	0.33768	0.002899	-0.006714	-0.006409	-0.35156	-0.001373	0.15106	0.033417	-0.006409	-0.023651
38.673	-0.11719	0.10742	0.003357	0.02655	-0.015564	0.16159	-0.24887	-0.000763	0.035248	-0.12222	-0.044098	0.017548	0.023804	-0.23163	-0.096283	-0.29251	0.066528	0.10346	0.098419	0.060883	0.017853	0.050964	0.30029	-0.005798	-0.00351	-0.000458	-0.38864	-0.00061	0.14435	0.053406	0.000763	-0.028992
38.674	-0.077667	0.076294	-0.067139	0.01297	-0.032349	0.13855	-0.25345	0.007019	0.033722	-0.081635	-0.040741	0.014648	0.018463	-0.21805	0.017548	0.1828	0.06546	0.041046	-0.042572	0.16357	0.018463	0.022583	0.28015	-0.000305	-0.016785	0.004883	-0.18967	0.003815	0.0354	0.062714	-0.002594	-0.027466
38.675	-0.010529	0.16342	-0.16327	-0.006256	-0.049286	0.10468	-0.23911	0.004425	0.009308	-0.035248	-0.015717	0.011597	0.014954	-0.16205	0.072327	0.35721	0.073395	0.025177	-0.298	0.22736	-0.014038	-0.024567	0.30075	0.014648	-0.011597	0.004578	-0.28854	0.004578	0.029144	0.20325	-0.002899	-0.016785
38.676	0.006409	0.22415	-0.2356	0.00473	-0.024414	0.007172	-0.23712	0.00412	0.009155	0.082397	-0.023804	0.011292	-0.03891	-0.22614	0.07309	0.20752	0.046997	0.007324	-0.27145	0.28076	-0.028229	0.004425	0.29388	-0.00885	-0.023041	0.001678	-0.43304	0.005341	0.10544	0.26367	-0.002441	-0.020142
38.677	-0.00473	0.29297	-0.16327	-0.000916	-0.016479	-0.075531	-0.23727	0.002899	0.024109	0.097961	-0.003815	0.061188	0.093689	-0.1976	0.077209	0.17105	0.042114	-0.00824	-0.013275	0.14023	-0.0354	-0.013733	0.29404	-0.024109	-0.021362	-0.002441	-0.24124	-0.000153	0.083771	0.22553	-0.000458	-0.013733
38.678	-0.007629	0.29221	-0.10208	0.010986	-0.067291	-0.023956	-0.25375	0.003052	0.028534	0.053864	0.006409	0.19333	0.12024	-0.069885	0.076904	-0.028229	0.052032	-0.018158	0.039063	-0.058136	-0.028534	-0.008698	0.28503	-0.040131	-0.032806	0.005341	-0.37201	0.018005	0.21118	0.15747	0.001221	-0.016022
38.679	0.000305	0.33569	-0.007324	0.019684	-0.088348	0.014648	-0.25421	0.001526	-0.034485	0.005341	0.02182	0.054474	0.0383	0.10788	0.13275	-0.36514	0.054474	0.022278	0.083923	-0.10773	-0.055237	-0.003052	0.33615	-0.082245	-0.036774	0.004425	-0.39612	0.005646	0.087585	0.053864	-0.00351	-0.017395
38.68	0.005035	0.28397	-0.15717	0.014648	-0.10895	0.006409	-0.28122	-0.003662	-0.083466	0.11581	0.047913	-0.1062	-0.004425	0.027161	0.14648	0.007782	0.046082	-0.009003	0.01709	-0.062103	-0.07019	-0.008545	0.327	-0.11505	-0.064697	-0.005341	-0.12085	0.007629	-0.11459	0.023804	0.000153	-0.012512
38.681	0.01236	0.31311	0.073547	0.023041	-0.036621	-0.011139	-0.29175	-0.007782	-0.013275	0.10803	0.04715	-0.016022	0.000763	-0.46524	0.1442	0.068817	0.044556	-0.089417	-0.16007	0.052032	-0.062408	-0.001373	0.35095	-0.15472	-0.059814	-0.008392	-0.092468	0.006714	-0.10849	0.010834	-0.002747	-0.019226
38.682	0.007629	0.38116	0.11047	0.015717	0.019226	-0.014801	-0.25192	-0.009918	-0.018463	0.14343	0.041046	0.048523	-0.023041	-0.64621	0.081635	-0.22675	0.010071	-0.074463	0.027008	0.13596	-0.063019	0.034943	0.3418	-0.12131	-0.053101	-0.001526	-0.36499	0.01358	0.018768	-0.078125	-0.003357	-0.00946
38.683	0.007172	0.42602	0.29984	0.021667	0.014038	-0.011902	-0.2562	0.000916	-0.048981	0.076752	0.016937	-0.18539	-0.045319	-0.31235	0.020142	0.062561	-0.016174	-0.085144	0.054474	0.21454	-0.053406	0.042267	0.30456	-0.11032	-0.062561	0.011139	-0.20752	0.015106	0.10193	-0.16312	-0.003967	-0.005341
38.684	-0.005951	0.46432	0.19867	0.020752	0.032196	-0.016632	-0.24307	0.006866	-0.092163	0.013733	0.053864	-0.081329	-0.042114	0.18692	-0.007019	0.05249	0.00473	-0.11643	0.046082	0.20416	-0.058899	0.070038	0.31937	-0.098572	-0.058594	0.004578	0.22156	0.015564	0.051422	-0.081482	-0.003052	-0.006714
38.685	-0.001221	0.49103	0.098572	0.020294	0.056	0.038147	-0.24872	0.010986	-0.050354	0.004578	0.29541	-0.12848	-0.013428	0.24521	-0.02121	0.30258	0.047913	-0.12619	-0.098419	0.11673	-0.074768	0.095673	0.30624	-0.13168	-0.05127	-0.000458	-0.10757	0.011444	-0.088654	-0.034943	0.000153	-0.007172
38.686	0.001678	0.55359	0.090332	0.002441	0.027771	0.072937	-0.26428	0.014343	-0.045166	-0.012054	0.39307	-0.071716	0.013428	0.085449	0.26703	-0.32211	0.054779	-0.12116	-0.25497	0.034332	-0.06958	0.063934	0.27542	-0.12299	-0.049133	-0.011139	-0.21561	0.007782	-0.18326	-0.019379	-0.002747	-0.0177
38.687	-0.003204	0.51392	-0.042572	0.03952	0.003967	0.080719	-0.31433	0.00061	-0.040894	0.043488	0.30472	-0.023956	0.000916	-0.10147	0.20828	0.25986	0.046387	-0.12787	-0.2359	-0.087738	-0.092468	0.066071	0.27039	-0.16663	-0.036469	-0.009155	-0.19745	0.007477	-0.14328	0.033722	-0.002747	-0.018005
38.688	0.001526	0.49896	-0.010223	-0.001831	-0.020447	0.099182	-0.28686	-0.00473	-0.039063	0.14496	0.17303	-0.021973	-0.025635	-0.063477	0.55115	-0.58456	-0.032806	-0.15915	-0.26032	0.024109	-0.10468	-0.001373	0.2832	-0.19516	-0.041962	-0.016937	0.2243	0.013123	-0.11566	0.081482	-0.001373	-0.021362
38.689	-0.001373	0.43228	-0.070343	0.000458	-0.050354	0.19394	-0.28275	-0.001068	-0.079346	0.17471	-0.23682	-0.022736	-0.022125	0.071411	0.010986	0.09613	-0.042725	-0.17425	-0.07431	0.059204	-0.077667	-0.012817	0.23025	-0.13031	-0.036316	-0.000916	0.95642	0.012665	-0.10513	-0.012665	-0.001984	-0.018616
38.69	-0.002747	0.4483	0.010376	0.022736	-0.050507	0.19455	-0.35141	-0.012665	-0.037079	0.16739	-0.43427	-0.020142	-0.076752	0.26627	0.37582	0.90454	-0.04364	-0.14877	-0.032806	0.10696	-0.055084	0.012054	0.17807	-0.09903	-0.039063	0.00824	1.1069	0.014801	-0.015106	-0.11765	-0.001831	-0.017548
38.691	0.007324	0.42541	0.076904	0.033264	-0.081024	0.051422	-0.32883	-0.016327	0.02121	0.027618	-0.24826	-0.019073	-0.005798	0.39444	-0.28183	0.074005	0.009918	-0.17227	-0.044403	0.034637	-0.012817	0.047913	0.19394	-0.093231	-0.019531	0.007019	0.79987	0.015869	-0.038452	-0.16129	0.000153	-0.011902
